<svg xmlns="http://www.w3.org/2000/svg" viewBox="0 0 48 48">
    <rect width="48" height="48" rx="10" fill="#2563eb" />
    <ellipse cx="24" cy="12" rx="14" ry="5" fill="white" opacity="0.3" />
    <path d="M10 12v10c0 2.761 6.268 5 14 5s14-2.239 14-5V12" fill="none" stroke="white" stroke-width="2.5" stroke-linecap="round" />
    <ellipse cx="24" cy="12" rx="14" ry="5" fill="none" stroke="white" stroke-width="2.5" />
    <path d="M10 18c0 2.761 6.268 5 14 5s14-2.239 14-5" fill="none" stroke="white" stroke-width="1.5" opacity="0.5" />
    <circle cx="12" cy="36" r="5" fill="white" opacity="0.2" stroke="white" stroke-width="2" />
    <circle cx="24" cy="40" r="5" fill="white" opacity="0.2" stroke="white" stroke-width="2" />
    <circle cx="36" cy="36" r="5" fill="white" opacity="0.2" stroke="white" stroke-width="2" />
    <line x1="18" y1="25" x2="13" y2="31" stroke="white" stroke-width="1.5" stroke-linecap="round" opacity="0.6" />
    <line x1="24" y1="27" x2="24" y2="35" stroke="white" stroke-width="1.5" stroke-linecap="round" opacity="0.6" />
    <line x1="30" y1="25" x2="35" y2="31" stroke="white" stroke-width="1.5" stroke-linecap="round" opacity="0.6" />
    <line x1="17" y1="37" x2="19" y2="39" stroke="white" stroke-width="1.5" stroke-linecap="round" opacity="0.4" />
    <line x1="29" y1="39" x2="31" y2="37" stroke="white" stroke-width="1.5" stroke-linecap="round" opacity="0.4" />
    <circle cx="12" cy="36" r="1.5" fill="white" />
    <circle cx="24" cy="40" r="1.5" fill="white" />
    <circle cx="36" cy="36" r="1.5" fill="white" />
</svg>
